<?xml version="1.0" encoding="utf-8"?>
<!-- Generator: Adobe Illustrator 24.0.2, SVG Export Plug-In . SVG Version: 6.00 Build 0)  -->
<svg version="1.1" id="Layer_1" xmlns="http://www.w3.org/2000/svg" xmlns:xlink="http://www.w3.org/1999/xlink" x="0px" y="0px"
	 viewBox="0 0 1366 1366" style="enable-background:new 0 0 1366 1366;" xml:space="preserve">
<style type="text/css">
	.st0{fill:#FF906C;}
</style>
<g>
	<path class="st0" d="M1037.5,307C661.7,307,357,611.7,357,987.5S661.7,1668,1037.5,1668S1718,1363.3,1718,987.5
		S1413.3,307,1037.5,307z M1004.6,597.9c-5.5-1.8-13.1-4.1-22.8-6.9c-9.7-2.8-22.3-4.1-38-4.1c-35.9,0-61.8,9.1-77.6,27.1
		c-15.8,18.1-23.7,44.7-23.7,79.6v71.8h158.3v92H842.6v614.9H734V857.5H619.8v-92H734v-97.6c0-40.5,9.5-74.3,28.5-101.3
		c19-27,43.7-47.3,74.1-60.8c30.4-13.5,62.4-20.3,96.2-20.3c26.7,0,48.5,2.1,65.3,6.4c16.9,4.3,29.5,8.3,37.8,12L1004.6,597.9z
		 M1507.1,866.7c-3.7-0.9-12-2.4-25.1-4.4c-13.1-2-26.8-3-41.2-3c-34.4,0-65,7.1-91.8,21.4c-26.8,14.3-48,33.9-63.5,58.9
		s-23.2,53.5-23.2,85.4v447.3h-108.6V765.5h104.9v106.8h7.4c12.9-35,36.2-63.4,69.9-85.1c33.8-21.8,71.8-32.7,114.1-32.7
		c8,0,17.9,0.2,29.9,0.5c12,0.3,21,0.8,27.2,1.4V866.7z"/>
</g>
</svg>
