<?xml version="1.0" standalone="no"?>
<!DOCTYPE svg PUBLIC "-//W3C//DTD SVG 20010904//EN"
 "http://www.w3.org/TR/2001/REC-SVG-20010904/DTD/svg10.dtd">
<svg version="1.0" xmlns="http://www.w3.org/2000/svg"
 width="700.000000pt" height="700.000000pt" viewBox="0 0 700.000000 700.000000"
 preserveAspectRatio="xMidYMid meet">
<metadata>
Created by potrace 1.14, written by Peter Selinger 2001-2017
</metadata>
<g transform="translate(0.000000,700.000000) scale(0.100000,-0.100000)"
fill="#000000" stroke="none">
<path d="M3215 6980 c-95 -10 -185 -20 -215 -25 -14 -2 -42 -6 -62 -9 -92 -14
-117 -18 -173 -31 -1022 -220 -1894 -884 -2372 -1805 -32 -63 -72 -144 -87
-180 -16 -36 -35 -78 -42 -95 -81 -179 -191 -568 -218 -770 -3 -17 -7 -45 -11
-64 -3 -19 -8 -55 -10 -80 -3 -25 -8 -82 -12 -126 -15 -153 -8 -601 12 -703 1
-9 6 -44 9 -77 4 -33 9 -67 11 -75 3 -8 7 -31 9 -50 10 -76 60 -282 103 -420
148 -479 404 -929 738 -1299 75 -83 220 -226 285 -281 36 -30 67 -58 70 -61
13 -16 167 -134 251 -192 206 -142 435 -267 664 -362 143 -60 444 -153 575
-179 156 -30 197 -38 219 -41 167 -22 174 -23 296 -31 177 -12 441 -7 600 10
75 9 152 19 170 22 11 3 36 7 55 10 213 34 487 112 720 206 574 231 1065 609
1473 1133 4 5 25 35 47 65 22 30 43 60 48 65 4 6 38 58 75 117 216 345 380
757 463 1163 2 11 6 31 9 45 3 14 8 41 11 60 3 19 7 46 9 60 3 14 7 50 11 80
3 30 8 63 10 73 21 114 21 592 0 727 -3 14 -7 52 -10 85 -5 51 -19 138 -41
248 -3 15 -7 37 -9 50 -20 114 -102 379 -167 543 -69 174 -181 400 -262 528
-247 390 -504 679 -841 942 -422 329 -877 539 -1436 664 -47 10 -77 15 -144
25 -23 4 -50 8 -61 10 -11 1 -49 6 -85 10 -36 3 -78 9 -95 11 -49 9 -514 11
-590 4z m-30 -920 c65 -8 261 -60 283 -74 12 -7 15 4 -77 -269 -60 -179 -76
-217 -89 -212 -147 56 -382 65 -519 19 -108 -36 -183 -100 -231 -199 -51 -104
-61 -172 -62 -441 l-1 -244 406 0 405 0 0 -235 0 -235 -405 0 -405 0 0 -1575
0 -1575 -27 -1 c-33 0 -515 0 -525 0 -4 1 -8 677 -8 1504 0 826 0 1535 0 1575
l0 72 -292 0 -293 0 2 222 c1 123 2 229 2 236 1 9 66 12 291 12 l290 0 0 48
c-2 485 10 657 55 789 96 285 394 516 745 578 122 22 317 24 455 5z m2704
-1378 c5 -8 7 -499 2 -550 -1 -9 -8 -11 -22 -7 -12 4 -31 8 -42 10 -12 2 -47
7 -77 11 -30 5 -125 8 -210 8 -132 -1 -169 -5 -254 -27 -359 -95 -609 -378
-642 -727 -2 -19 -4 -563 -4 -1208 l-1 -1172 -47 -1 c-54 -1 -469 0 -493 0
-14 1 -16 165 -16 1811 l0 1810 269 0 268 0 0 -275 c0 -260 1 -275 18 -275 13
0 26 18 44 59 97 225 341 428 601 501 102 28 112 30 177 37 30 3 56 6 57 7 9
8 367 -5 372 -12z"/>
</g>
</svg>
